<mxfile host="app.diagrams.net" agent="Mozilla/5.0 (Windows NT 10.0; Win64; x64) AppleWebKit/537.36 (KHTML, like Gecko) Chrome/134.0.0.0 Safari/537.36 Edg/134.0.0.0" version="26.1.1">
  <diagram name="Page-1" id="e7e014a7-5840-1c2e-5031-d8a46d1fe8dd">
    <mxGraphModel dx="1236" dy="599" grid="1" gridSize="10" guides="1" tooltips="1" connect="1" arrows="1" fold="1" page="1" pageScale="1" pageWidth="1169" pageHeight="826" background="none" math="0" shadow="0">
      <root>
        <mxCell id="0" />
        <mxCell id="1" parent="0" />
        <mxCell id="2" value="模型训练" style="swimlane;whiteSpace=wrap" parent="1" vertex="1">
          <mxGeometry x="164.5" y="128" width="280" height="570" as="geometry" />
        </mxCell>
        <mxCell id="gjNSn1ifxUg87r3GjWRG-51" style="edgeStyle=orthogonalEdgeStyle;rounded=0;orthogonalLoop=1;jettySize=auto;html=1;entryX=0.5;entryY=0;entryDx=0;entryDy=0;" edge="1" parent="2" source="gjNSn1ifxUg87r3GjWRG-41" target="gjNSn1ifxUg87r3GjWRG-45">
          <mxGeometry relative="1" as="geometry" />
        </mxCell>
        <mxCell id="gjNSn1ifxUg87r3GjWRG-52" value="训练" style="edgeLabel;html=1;align=center;verticalAlign=middle;resizable=0;points=[];" vertex="1" connectable="0" parent="gjNSn1ifxUg87r3GjWRG-51">
          <mxGeometry x="-0.0439" relative="1" as="geometry">
            <mxPoint as="offset" />
          </mxGeometry>
        </mxCell>
        <mxCell id="gjNSn1ifxUg87r3GjWRG-41" value="数据处理" style="swimlane;fontStyle=0;childLayout=stackLayout;horizontal=1;startSize=30;horizontalStack=0;resizeParent=1;resizeParentMax=0;resizeLast=0;collapsible=1;marginBottom=0;whiteSpace=wrap;html=1;" vertex="1" parent="2">
          <mxGeometry x="55.5" y="90" width="140" height="90" as="geometry" />
        </mxCell>
        <mxCell id="gjNSn1ifxUg87r3GjWRG-42" value="MDFEND数据" style="text;strokeColor=none;fillColor=none;align=left;verticalAlign=middle;spacingLeft=4;spacingRight=4;overflow=hidden;points=[[0,0.5],[1,0.5]];portConstraint=eastwest;rotatable=0;whiteSpace=wrap;html=1;" vertex="1" parent="gjNSn1ifxUg87r3GjWRG-41">
          <mxGeometry y="30" width="140" height="30" as="geometry" />
        </mxCell>
        <mxCell id="gjNSn1ifxUg87r3GjWRG-43" value="HAMMER数据" style="text;strokeColor=none;fillColor=none;align=left;verticalAlign=middle;spacingLeft=4;spacingRight=4;overflow=hidden;points=[[0,0.5],[1,0.5]];portConstraint=eastwest;rotatable=0;whiteSpace=wrap;html=1;" vertex="1" parent="gjNSn1ifxUg87r3GjWRG-41">
          <mxGeometry y="60" width="140" height="30" as="geometry" />
        </mxCell>
        <mxCell id="gjNSn1ifxUg87r3GjWRG-54" style="edgeStyle=orthogonalEdgeStyle;rounded=0;orthogonalLoop=1;jettySize=auto;html=1;entryX=0.5;entryY=0;entryDx=0;entryDy=0;" edge="1" parent="2" source="gjNSn1ifxUg87r3GjWRG-45" target="gjNSn1ifxUg87r3GjWRG-53">
          <mxGeometry relative="1" as="geometry" />
        </mxCell>
        <mxCell id="gjNSn1ifxUg87r3GjWRG-45" value="模型" style="swimlane;fontStyle=0;childLayout=stackLayout;horizontal=1;startSize=30;horizontalStack=0;resizeParent=1;resizeParentMax=0;resizeLast=0;collapsible=1;marginBottom=0;whiteSpace=wrap;html=1;" vertex="1" parent="2">
          <mxGeometry x="55.5" y="262" width="140" height="90" as="geometry" />
        </mxCell>
        <mxCell id="gjNSn1ifxUg87r3GjWRG-46" value="MDFEND" style="text;strokeColor=none;fillColor=none;align=left;verticalAlign=middle;spacingLeft=4;spacingRight=4;overflow=hidden;points=[[0,0.5],[1,0.5]];portConstraint=eastwest;rotatable=0;whiteSpace=wrap;html=1;" vertex="1" parent="gjNSn1ifxUg87r3GjWRG-45">
          <mxGeometry y="30" width="140" height="30" as="geometry" />
        </mxCell>
        <mxCell id="gjNSn1ifxUg87r3GjWRG-47" value="HAMMER" style="text;strokeColor=none;fillColor=none;align=left;verticalAlign=middle;spacingLeft=4;spacingRight=4;overflow=hidden;points=[[0,0.5],[1,0.5]];portConstraint=eastwest;rotatable=0;whiteSpace=wrap;html=1;" vertex="1" parent="gjNSn1ifxUg87r3GjWRG-45">
          <mxGeometry y="60" width="140" height="30" as="geometry" />
        </mxCell>
        <mxCell id="gjNSn1ifxUg87r3GjWRG-53" value="模型导出" style="rounded=0;whiteSpace=wrap;html=1;" vertex="1" parent="2">
          <mxGeometry x="83.25" y="432" width="84.5" height="28" as="geometry" />
        </mxCell>
        <mxCell id="3" value="在线部署" style="swimlane;whiteSpace=wrap;startSize=23;" parent="1" vertex="1">
          <mxGeometry x="445" y="128" width="280" height="570" as="geometry" />
        </mxCell>
        <mxCell id="gjNSn1ifxUg87r3GjWRG-59" style="edgeStyle=orthogonalEdgeStyle;rounded=0;orthogonalLoop=1;jettySize=auto;html=1;" edge="1" parent="3" source="gjNSn1ifxUg87r3GjWRG-56">
          <mxGeometry relative="1" as="geometry">
            <mxPoint x="135.5" y="172" as="targetPoint" />
          </mxGeometry>
        </mxCell>
        <mxCell id="gjNSn1ifxUg87r3GjWRG-67" value="部署" style="edgeLabel;html=1;align=center;verticalAlign=middle;resizable=0;points=[];" vertex="1" connectable="0" parent="gjNSn1ifxUg87r3GjWRG-59">
          <mxGeometry x="0.1338" y="-1" relative="1" as="geometry">
            <mxPoint as="offset" />
          </mxGeometry>
        </mxCell>
        <mxCell id="gjNSn1ifxUg87r3GjWRG-56" value="" style="image;sketch=0;aspect=fixed;html=1;points=[];align=center;fontSize=12;image=img/lib/mscae/Docker.svg;" vertex="1" parent="3">
          <mxGeometry x="35.5" y="272" width="76.83" height="63" as="geometry" />
        </mxCell>
        <mxCell id="gjNSn1ifxUg87r3GjWRG-58" value="" style="sketch=0;verticalLabelPosition=bottom;sketch=0;aspect=fixed;html=1;verticalAlign=top;strokeColor=none;fillColor=#000000;align=center;outlineConnect=0;pointerEvents=1;shape=mxgraph.citrix2.linux_apps;" vertex="1" parent="3">
          <mxGeometry x="97.5" y="62" width="85.43" height="100" as="geometry" />
        </mxCell>
        <mxCell id="gjNSn1ifxUg87r3GjWRG-65" style="edgeStyle=orthogonalEdgeStyle;rounded=0;orthogonalLoop=1;jettySize=auto;html=1;" edge="1" parent="3" source="gjNSn1ifxUg87r3GjWRG-60" target="gjNSn1ifxUg87r3GjWRG-56">
          <mxGeometry relative="1" as="geometry" />
        </mxCell>
        <mxCell id="gjNSn1ifxUg87r3GjWRG-60" value="前端框架" style="rounded=1;whiteSpace=wrap;html=1;" vertex="1" parent="3">
          <mxGeometry x="155.5" y="422" width="81" height="42" as="geometry" />
        </mxCell>
        <mxCell id="gjNSn1ifxUg87r3GjWRG-68" value="linux服务器" style="text;html=1;align=center;verticalAlign=middle;whiteSpace=wrap;rounded=0;" vertex="1" parent="3">
          <mxGeometry x="182.93" y="97" width="73" height="30" as="geometry" />
        </mxCell>
        <mxCell id="gjNSn1ifxUg87r3GjWRG-63" style="edgeStyle=orthogonalEdgeStyle;rounded=0;orthogonalLoop=1;jettySize=auto;html=1;" edge="1" parent="1" source="gjNSn1ifxUg87r3GjWRG-53" target="gjNSn1ifxUg87r3GjWRG-56">
          <mxGeometry relative="1" as="geometry" />
        </mxCell>
        <mxCell id="gjNSn1ifxUg87r3GjWRG-66" value="构建" style="edgeLabel;html=1;align=center;verticalAlign=middle;resizable=0;points=[];" vertex="1" connectable="0" parent="gjNSn1ifxUg87r3GjWRG-63">
          <mxGeometry x="0.6425" relative="1" as="geometry">
            <mxPoint as="offset" />
          </mxGeometry>
        </mxCell>
      </root>
    </mxGraphModel>
  </diagram>
</mxfile>
